<?xml version="1.0" encoding="utf-8"?>
<!-- Generator: Adobe Illustrator 26.0.2, SVG Export Plug-In . SVG Version: 6.00 Build 0)  -->
<svg version="1.1" id="Layer_1" xmlns="http://www.w3.org/2000/svg" xmlns:xlink="http://www.w3.org/1999/xlink" x="0px" y="0px"
	 viewBox="0 0 955.2 780.8" style="enable-background:new 0 0 955.2 780.8;" xml:space="preserve">
<style type="text/css">
	.st0{fill-rule:evenodd;clip-rule:evenodd;fill:#FFFFFF;}
	.st1{fill:#010205;}
	.st2{fill-rule:evenodd;clip-rule:evenodd;fill:url(#SVGID_1_);}
	.st3{fill-rule:evenodd;clip-rule:evenodd;fill:url(#SVGID_00000010997570718538202140000003064246285003027637_);}
	.st4{fill-rule:evenodd;clip-rule:evenodd;fill:url(#SVGID_00000042005829271372859360000006313824516255938965_);}
	.st5{fill-rule:evenodd;clip-rule:evenodd;fill:url(#SVGID_00000045605260794184965460000008042544784087532208_);}
	.st6{fill-rule:evenodd;clip-rule:evenodd;fill:url(#SVGID_00000026883531451335909190000005434107166445704070_);}
	.st7{fill:#0F4CF5;}
	.st8{fill-rule:evenodd;clip-rule:evenodd;fill:url(#SVGID_00000119816341289459891620000005223301442476265345_);}
	.st9{fill:#000103;}
	.st10{fill:#FFFFFF;}
	.st11{fill-rule:evenodd;clip-rule:evenodd;fill:#000103;}
	.st12{fill-rule:evenodd;clip-rule:evenodd;fill:url(#SVGID_00000158746700843619911840000014251733008639092096_);}
	.st13{fill-rule:evenodd;clip-rule:evenodd;fill:url(#SVGID_00000101061291974359692850000013835707114976960921_);}
	.st14{fill-rule:evenodd;clip-rule:evenodd;fill:url(#SVGID_00000054977947372593534680000012305665751422447782_);}
	.st15{fill-rule:evenodd;clip-rule:evenodd;fill:url(#SVGID_00000051361612525106200140000005997532597548691589_);}
	.st16{fill:#2757EA;}
	.st17{fill-rule:evenodd;clip-rule:evenodd;fill:url(#SVGID_00000142150617907586933800000010804220914339492745_);}
	.st18{fill-rule:evenodd;clip-rule:evenodd;fill:#01040B;}
	.st19{fill:#FFFFFF;fill-opacity:0.602;}
	.st20{fill:#FFFFFF;fill-opacity:0.2;}
	.st21{fill:#010207;}
	.st22{fill-rule:evenodd;clip-rule:evenodd;fill:#34D71A;}
	.st23{fill-rule:evenodd;clip-rule:evenodd;fill:#EC0404;}
</style>
<g>
	<path class="st0" d="M547.5,450.9l-9.9,1.3l3.8-9.4l2.5,3.3c10.5-9.4,29.5-31,29.5-64.5c0-23.2-9.1-40.4-18.2-51.8
		c-4.5-5.7-9.1-10-12.5-12.9c-1.7-1.4-3.1-2.5-4.1-3.2c-0.5-0.4-0.9-0.6-1.1-0.8c-0.1-0.1-0.2-0.2-0.3-0.2c0,0-0.1,0-0.1,0l0,0l0,0
		c0,0,0,0,0.5-0.8c0.5-0.8,0.5-0.7,0.5-0.7l0,0l0,0c0,0,0,0,0.1,0.1c0.1,0,0.2,0.1,0.3,0.2c0.3,0.2,0.7,0.5,1.2,0.8
		c1,0.7,2.5,1.8,4.2,3.3c3.5,2.9,8.1,7.3,12.7,13.1c9.3,11.7,18.5,29.3,18.5,53c0,34.3-19.5,56.4-30.2,65.9L547.5,450.9z"/>
</g>
<g>
	<path class="st0" d="M431.5,313.5l10.1-1.3l-3.9,9.4l-2.5-3.3c-10.8,9.4-30.3,31-30.3,64.5c0,23.2,9.3,40.4,18.6,51.8
		c4.7,5.7,9.3,10,12.8,12.9c1.7,1.4,3.2,2.5,4.2,3.2c0.5,0.4,0.9,0.6,1.2,0.8c0.1,0.1,0.2,0.2,0.3,0.2c0,0,0.1,0,0.1,0l0,0l0,0
		c0,0,0,0-0.5,0.8c-0.5,0.8-0.5,0.7-0.5,0.7l0,0l0,0c0,0,0,0-0.1-0.1c-0.1,0-0.2-0.1-0.3-0.2c-0.3-0.2-0.7-0.5-1.2-0.8
		c-1-0.7-2.5-1.8-4.3-3.3c-3.6-2.9-8.3-7.3-13.1-13.1c-9.5-11.7-19-29.3-19-53c0-34.3,20-56.4,31-65.9L431.5,313.5z"/>
</g>
<path class="st1" d="M442.1,279.2h95v39h-95V279.2z"/>
<path class="st1" d="M442.1,437.2h95v39h-95V437.2z"/>
<g>
	
		<linearGradient id="SVGID_1_" gradientUnits="userSpaceOnUse" x1="373.9126" y1="460.4496" x2="615.9416" y2="320.7146" gradientTransform="matrix(1 0 0 -1 0 781)">
		<stop  offset="0" style="stop-color:#646464"/>
		<stop  offset="1" style="stop-color:#888888;stop-opacity:0.2"/>
	</linearGradient>
	<path shape-rendering="crispEdges" class="st2" d="M250.1,707.1c3.6,27.1,13.4,46.4,29.7,55.9c16.4,9.4,38,8.3,63.3-2.2
		c25.3-10.5,54-30.2,84.4-57.6c60.8-54.8,128.2-140.3,187.7-243.3c59.5-103,99.8-204.1,116.9-284.2c8.5-40.1,11.3-74.8,7.7-101.9
		c-3.6-27.1-13.4-46.4-29.7-55.9c-16.4-9.4-38-8.3-63.3,2.2c-25.3,10.5-54,30.2-84.4,57.6C501.5,132.5,434.2,218,374.7,321
		c-59.5,103-99.8,204.1-116.9,284.2C249.3,645.2,246.5,680,250.1,707.1z M256.1,604.8c17.1-80.3,57.5-181.6,117.1-284.7
		s127-188.8,188-243.7c30.5-27.5,59.4-47.4,84.9-58c25.5-10.6,47.8-11.9,64.8-2.1s27,29.8,30.6,57.2c3.6,27.4,0.8,62.4-7.7,102.5
		c-17.1,80.3-57.5,181.6-117.1,284.7c-59.6,103.2-127,188.8-188,243.7c-30.5,27.5-59.4,47.4-84.9,58c-25.5,10.6-47.8,11.9-64.8,2.1
		c-17.1-9.8-27-29.8-30.6-57.2C244.7,680,247.5,645,256.1,604.8z"/>
</g>
<g>
	
		<linearGradient id="SVGID_00000182489738971459475990000011981406227402913442_" gradientUnits="userSpaceOnUse" x1="386.0708" y1="268.425" x2="604.1168" y2="521.776" gradientTransform="matrix(1 0 0 -1 0 781)">
		<stop  offset="0" style="stop-color:#505050"/>
		<stop  offset="1" style="stop-color:#646464;stop-opacity:0.37"/>
	</linearGradient>
	
		<path shape-rendering="crispEdges" style="fill-rule:evenodd;clip-rule:evenodd;fill:url(#SVGID_00000182489738971459475990000011981406227402913442_);" d="
		M766.5,704.4c30.1-0.3,53.7-8.7,68.5-26c14.8-17.2,19.6-41.8,15.5-71.6c-4.2-29.8-17.3-64.8-38.2-102.8
		c-41.8-75.9-114.7-163.2-208.7-244.1S412.3,120,331.1,89.9c-40.6-15-77.2-22.8-107.3-22.5c-30.1,0.3-53.7,8.7-68.5,26
		c-14.8,17.2-19.6,41.8-15.5,71.6c4.2,29.8,17.3,64.8,38.2,102.8c41.8,75.9,114.7,163.2,208.7,244.1c94,80.9,191.2,139.9,272.5,170
		C699.8,696.9,736.3,704.7,766.5,704.4z M658.5,683.6c-81.5-30.2-178.9-89.3-273-170.3c-94.1-81-167.1-168.5-209.1-244.6
		c-21-38-34.2-73.3-38.4-103.4c-4.2-30.1,0.6-55.3,15.9-73c15.3-17.8,39.4-26.3,69.9-26.6c30.4-0.3,67.2,7.5,108,22.6
		c81.5,30.2,178.9,89.3,273,170.3c94.1,81,167.1,168.5,209.1,244.6c21,38,34.2,73.3,38.4,103.4c4.2,30.1-0.6,55.3-15.9,73
		c-15.3,17.8-39.4,26.3-69.9,26.6C736.1,706.5,699.3,698.6,658.5,683.6z"/>
</g>
<g>
	
		<linearGradient id="SVGID_00000123441681632591291130000001022633212526989461_" gradientUnits="userSpaceOnUse" x1="520.5558" y1="272.529" x2="434.9778" y2="539.659" gradientTransform="matrix(1 0 0 -1 0 781)">
		<stop  offset="0" style="stop-color:#505050"/>
		<stop  offset="1" style="stop-color:#646464;stop-opacity:0.37"/>
	</linearGradient>
	
		<path shape-rendering="crispEdges" style="fill-rule:evenodd;clip-rule:evenodd;fill:url(#SVGID_00000123441681632591291130000001022633212526989461_);" d="
		M920.1,289.8c18.2-23.4,25.3-44.8,19.6-62.8c-5.8-18-24-31.3-52.4-39.8c-28.4-8.4-66.8-12-112.5-10.6
		c-91.4,2.7-211.8,24.7-339.5,65.7C307.5,283.1,196.7,335.1,120.8,386c-38,25.5-67.1,50.7-85.4,74c-18.2,23.4-25.3,44.8-19.6,62.8
		c5.8,18,24,31.3,52.4,39.8c28.4,8.4,66.8,12,112.5,10.6c91.4-2.7,211.8-24.7,339.5-65.7c127.7-40.9,238.5-92.9,314.5-143.8
		C872.7,338.3,901.9,313.1,920.1,289.8z M835.7,365.3c-76.1,51.1-187.1,103.1-314.9,144.1c-127.8,41-248.4,63.1-340,65.7
		c-45.8,1.3-84.4-2.2-113-10.7c-28.6-8.5-47.6-22.1-53.6-40.9c-6-18.9,1.5-40.9,19.9-64.5c18.4-23.6,47.7-48.9,85.8-74.4
		c76.1-51.1,187.1-103.1,314.9-144.1c127.8-41,248.4-63.1,340-65.7c45.8-1.3,84.4,2.2,113,10.7c28.6,8.5,47.6,22.1,53.6,40.9
		c6,18.9-1.5,40.9-19.9,64.4C903.1,314.4,873.8,339.7,835.7,365.3z"/>
</g>
<g>
	
		<linearGradient id="SVGID_00000180327308248469395160000000924230256471890072_" gradientUnits="userSpaceOnUse" x1="769.1575" y1="368.4044" x2="612.7036" y2="488.3104" gradientTransform="matrix(1 0 0 -1 0 781)">
		<stop  offset="1.552500e-02" style="stop-color:#2757EA"/>
		<stop  offset="1.562500e-02" style="stop-color:#0F4CF5"/>
		<stop  offset="1" style="stop-color:#2757EA;stop-opacity:0"/>
	</linearGradient>
	<path style="fill-rule:evenodd;clip-rule:evenodd;fill:url(#SVGID_00000180327308248469395160000000924230256471890072_);" d="
		M778.6,446.3c1.2-0.9,1.4-2.5,0.5-3.7c-42.6-57-96.3-118.7-149.5-165.8c-1.1-1-2.8-0.9-3.7,0.2s-0.9,2.8,0.2,3.7
		c52.8,46.8,106.2,108.1,148.7,165C775.8,447,777.5,447.2,778.6,446.3z"/>
</g>
<g>
	
		<linearGradient id="SVGID_00000126310819692911563130000008237223842243602083_" gradientUnits="userSpaceOnUse" x1="300.6419" y1="328.8194" x2="472.7469" y2="232.7203" gradientTransform="matrix(1 0 0 -1 0 781)">
		<stop  offset="1.562500e-02" style="stop-color:#2757EA"/>
		<stop  offset="1" style="stop-color:#2757EA;stop-opacity:0"/>
	</linearGradient>
	<path style="fill-rule:evenodd;clip-rule:evenodd;fill:url(#SVGID_00000126310819692911563130000008237223842243602083_);" d="
		M292.4,422.9c-1.4,1.4-1.4,3.6-0.1,5c2.8,2.8,5.6,5.8,8.6,9c29.9,31.1,72,74.8,126.5,113.7c1.6,1.1,3.8,0.8,4.9-0.8
		c1.1-1.6,0.8-3.8-0.8-4.9c-54-38.5-95.6-81.7-125.6-112.8c-3-3.1-5.9-6.1-8.7-9C296.1,421.6,293.8,421.6,292.4,422.9z"/>
</g>
<g>
	<path class="st7" d="M271.5,559.8c4.8,2.8,6.5,9,3.7,13.8c-2.8,4.8-9,6.5-13.8,3.7c-4.8-2.8-6.5-9-3.7-13.8
		C260.5,558.7,266.6,557,271.5,559.8z"/>
</g>
<g>
	<path class="st7" d="M160.5,217.7c4.8,2.8,6.5,9,3.7,13.8c-2.8,4.8-9,6.5-13.8,3.7c-4.8-2.8-6.5-8.9-3.7-13.8
		C149.5,216.5,155.7,214.9,160.5,217.7z"/>
</g>
<g>
	<path class="st7" d="M26.9,527.2c4.8,2.8,6.5,9,3.7,13.8c-2.8,4.8-9,6.5-13.8,3.7c-4.8-2.8-6.5-9-3.7-13.8
		C15.9,526.1,22.1,524.4,26.9,527.2z"/>
</g>
<g>
	
		<linearGradient id="SVGID_00000173140891510915293390000000573423144708081326_" gradientUnits="userSpaceOnUse" x1="610.0123" y1="722.3467" x2="492.2563" y2="751.2635" gradientTransform="matrix(1 0 0 -1 0 781)">
		<stop  offset="1.562500e-02" style="stop-color:#2757EA"/>
		<stop  offset="1" style="stop-color:#2757EA;stop-opacity:0"/>
	</linearGradient>
	<path style="fill-rule:evenodd;clip-rule:evenodd;fill:url(#SVGID_00000173140891510915293390000000573423144708081326_);" d="
		M541.9,42.9c25.5-3,53.4-4.6,72.7-3.4c1.9,0.1,3.6-1.4,3.7-3.3c0.1-1.9-1.4-3.6-3.3-3.7c-19.9-1.2-48.3,0.4-74,3.4
		c-12.9,1.5-25.2,3.4-35.5,5.4c-10.2,2-18.8,4.3-24,6.7c-1.8,0.8-2.6,2.9-1.8,4.7c0.8,1.8,2.9,2.6,4.7,1.8c4.5-2,12.3-4.2,22.5-6.2
		C517.1,46.3,529.2,44.4,541.9,42.9z"/>
</g>
<path class="st9" d="M512.1,47.8l-1.5-1.8l-36.1-15.4l-30.1-7.3l-3.5,1.4l-0.8,1.9v3.1l8.5,65.1l6.7,7.5l43.2-11.5L512.1,47.8z"/>
<g>
	<path class="st9" d="M469.7,56.7l-28.1-32.9l42.1-10.1l28.1,32.9L469.7,56.7z"/>
</g>
<g>
	<path class="st0" d="M470.1,55.2l39.2-9.4l-26.2-30.6l-39.2,9.4L470.1,55.2z M469.7,56.7l42.1-10.1l-28.1-32.9l-42.1,10.1
		L469.7,56.7z"/>
</g>
<path class="st10" d="M472.4,39.6c0.1-0.1,0.2-0.2,0.3-0.3l11.9-4c0.2-0.1,0.4,0.1,0.3,0.3l-1.6,3.1c-0.1,0.1-0.2,0.2-0.3,0.3
	l-11.9,4c-0.2,0.1-0.4-0.1-0.3-0.3L472.4,39.6z"/>
<path class="st10" d="M469.6,31.1c0.1-0.1,0.2-0.2,0.3-0.3l11.9-4c0.2-0.1,0.4,0.1,0.3,0.3l-1.6,3.1c-0.1,0.1-0.2,0.2-0.3,0.3
	l-11.9,4c-0.2,0.1-0.4-0.1-0.3-0.3L469.6,31.1z"/>
<path class="st10" d="M481,32c-0.1-0.1-0.3-0.1-0.4,0l-11.9,4c-0.2,0.1-0.2,0.4,0,0.5l3.1,1.5c0.1,0.1,0.3,0.1,0.4,0l11.9-4
	c0.2-0.1,0.2-0.4,0-0.5L481,32z"/>
<g>
	<path class="st9" d="M471,58.4l-14,43.3l41.9-9.9l14-43.3L471,58.4z"/>
</g>
<g>
	<path class="st0" d="M456.9,101.7l41.9-9.9l14-43.3L471,58.4L456.9,101.7z M458.9,99.9l38.9-9.2l13.1-40.3L472,59.5L458.9,99.9z"/>
</g>
<g>
	<path class="st9" d="M468.5,58.1l-14,43.3l-27.9-32.6l14-43.3L468.5,58.1z"/>
</g>
<g>
	<path class="st0" d="M454.5,101.4l-27.9-32.6l14-43.3l27.9,32.6L454.5,101.4z M453.9,98.8L428,68.5l13.1-40.3L467,58.4L453.9,98.8z
		"/>
</g>
<path d="M487.9,736.2h-2.4l-6.4-2.6L430,719.1l-12.9-19.1l17.6-33l41.7-9.9h2.6l1.2,1.2l1.1,8l7.7,67.2L487.9,736.2z"/>
<g>
	<path class="st9" d="M460.8,696.7l-43.7,2.5l17.6-40.1l43.7-2.5L460.8,696.7z"/>
</g>
<g>
	<path class="st0" d="M459.9,695.4l16.4-37.4l-40.7,2.3l-16.4,37.4L459.9,695.4z M460.8,696.7l17.6-40.1l-43.7,2.5l-17.6,40.1
		L460.8,696.7z"/>
</g>
<path class="st10" d="M441.1,677l9.1-8.9l3.6,9.8l-7.6,2.7L441.1,677z"/>
<path class="st10" d="M444.8,686.2l-3.8-8.4l5.1,3.6l7.5-2.8L444.8,686.2z"/>
<path class="st11" d="M450.4,667.2l3.8,10.4l0.6,0.3l-0.4,0.2l0,0l-0.8,0.3l0.4,0.6l-9.3,7.9l-4.7-10.4l0.5,0.4l0.1,0L450.4,667.2z
	 M453,677.1l-3-8.3l-7.7,7.6l5.6-1.7L453,677.1z M442.4,677.3l3.8,2.8l6.2-2.3l-4.6-2.1L442.4,677.3z M451.4,680l-5.4,2l-3.9-2.8
	l2.9,6.3L451.4,680z"/>
<g>
	<path class="st9" d="M462.5,697.3l26.2,37.8l17.6-39.8l-26.2-37.8L462.5,697.3z"/>
</g>
<g>
	<path class="st0" d="M488.7,735.1l17.6-39.8l-26.2-37.8l-17.6,39.8L488.7,735.1z M488.5,732.4l16.4-37l-24.5-35.2l-16.4,37
		L488.5,732.4z"/>
</g>
<g>
	<path class="st9" d="M460.7,698.6l26.2,37.8l-43.3,2.5l-26.2-37.8L460.7,698.6z"/>
</g>
<g>
	<path class="st0" d="M486.9,736.3l-43.3,2.5l-26.2-37.8l43.3-2.5L486.9,736.3z M484.5,735.2l-40.2,2.4l-24.5-35.2l40.2-2.4
		L484.5,735.2z"/>
</g>
<g>
	<path class="st7" d="M615.8,644.9c7.5,5.5,9.2,16,3.7,23.6c-5.5,7.5-16,9.2-23.6,3.7c-7.5-5.5-9.2-16-3.7-23.6
		C597.7,641.1,608.3,639.5,615.8,644.9z"/>
</g>
<g>
	
		<linearGradient id="SVGID_00000164508863351348860110000016677303454555127470_" gradientUnits="userSpaceOnUse" x1="484.3102" y1="112.0862" x2="588.0142" y2="90.7221" gradientTransform="matrix(1 0 0 -1 0 781)">
		<stop  offset="1.562500e-02" style="stop-color:#2757EA"/>
		<stop  offset="1" style="stop-color:#2757EA;stop-opacity:0"/>
	</linearGradient>
	<path style="fill-rule:evenodd;clip-rule:evenodd;fill:url(#SVGID_00000164508863351348860110000016677303454555127470_);" d="
		M550.3,679.7c-25.3,6.4-52.8,12.1-67.4,13.8c-1.9,0.2-3.3,2-3.1,3.9s2,3.3,3.9,3.1c15.1-1.8,43-7.6,68.3-13.9
		c12.7-3.2,24.8-6.6,34.5-9.7c4.8-1.6,9.1-3.1,12.5-4.5c3.3-1.4,6.2-2.8,8-4.1c1.5-1.2,1.8-3.4,0.6-5c-1.2-1.5-3.4-1.8-5-0.6
		c-0.9,0.7-3,1.8-6.3,3.2c-3.2,1.3-7.3,2.8-12,4.3C574.9,673.2,562.9,676.5,550.3,679.7z"/>
</g>
<g>
	
		<linearGradient id="SVGID_00000035496947969078623290000005927292810183354809_" gradientUnits="userSpaceOnUse" x1="307.5594" y1="229.1509" x2="402.8305" y2="61.2759" gradientTransform="matrix(1 0 0 -1 0 781)">
		<stop  offset="1.562500e-02" style="stop-color:#2757EA"/>
		<stop  offset="1" style="stop-color:#2757EA;stop-opacity:0"/>
	</linearGradient>
	<path style="fill-rule:evenodd;clip-rule:evenodd;fill:url(#SVGID_00000035496947969078623290000005927292810183354809_);" d="
		M455.4,706.5c-0.2-1.9-2-3.3-3.9-3.1c-51.4,5.9-96.7-21.1-129.5-53.4c-16.3-16.1-29.4-33.4-38.4-48.2c-4.5-7.4-7.9-14.2-10.2-19.8
		c-2.3-5.8-3.4-10-3.4-12.6c0-1.9-1.6-3.5-3.5-3.5s-3.5,1.6-3.5,3.5c0,4,1.5,9.3,3.9,15.3c2.5,6.1,6.1,13.2,10.7,20.8
		c9.3,15.3,22.7,33.1,39.5,49.6c33.5,33,80.8,61.6,135.3,55.4C454.3,710.2,455.7,708.4,455.4,706.5z"/>
</g>
<g>
	
		<linearGradient id="SVGID_00000075148666649223175570000016279969499411267758_" gradientUnits="userSpaceOnUse" x1="152.0691" y1="354.7411" x2="247.3401" y2="186.8661" gradientTransform="matrix(1 0 0 -1 0 781)">
		<stop  offset="1.562500e-02" style="stop-color:#2757EA"/>
		<stop  offset="1" style="stop-color:#2757EA;stop-opacity:0"/>
	</linearGradient>
	<path style="fill-rule:evenodd;clip-rule:evenodd;fill:url(#SVGID_00000075148666649223175570000016279969499411267758_);" d="
		M266.9,569.2c0.7-1.8-0.3-3.9-2.1-4.5c-39.8-14.4-70.8-39.8-92.9-65.3c-22.2-25.6-35.1-51.1-38.9-65.4c-0.5-1.9-2.4-3-4.3-2.5
		c-1.9,0.5-3,2.4-2.5,4.3c4.1,15.7,17.8,42.1,40.4,68.2c22.7,26.2,54.7,52.4,95.8,67.3C264.2,572,266.3,571,266.9,569.2z"/>
</g>
<g>
	
		<linearGradient id="SVGID_00000143574999957445991980000003386212176006942853_" gradientUnits="userSpaceOnUse" x1="137.4884" y1="552.0609" x2="145.2974" y2="427.5489" gradientTransform="matrix(1 0 0 -1 0 781)">
		<stop  offset="0" style="stop-color:#2757EA"/>
		<stop  offset="1" style="stop-color:#2757EA;stop-opacity:0"/>
	</linearGradient>
	<path style="fill-rule:evenodd;clip-rule:evenodd;fill:url(#SVGID_00000143574999957445991980000003386212176006942853_);" d="
		M124.9,365.6c-1.9,0.1-3.6-1.4-3.7-3.3c-1.5-27,2.1-56.7,8.5-81.9c3.2-12.6,7.1-24.2,11.6-33.7c4.4-9.5,9.4-17.3,14.9-22.1
		c1.5-1.3,3.7-1.1,5,0.3c1.3,1.5,1.1,3.7-0.3,5c-4.4,3.9-8.9,10.6-13.2,19.8c-4.2,9.1-8,20.2-11.1,32.5c-6.2,24.6-9.7,53.6-8.3,79.8
		C128.4,363.9,126.9,365.5,124.9,365.6z"/>
</g>
<g>
	<path class="st16" d="M391.4,108.4c2.8,2,3.4,6,1.4,8.8c-2,2.8-6,3.4-8.8,1.4c-2.8-2-3.4-6-1.4-8.8
		C384.7,107,388.6,106.4,391.4,108.4z"/>
</g>
<g>
	
		<linearGradient id="SVGID_00000107576179328891300000000002428514446410831544_" gradientUnits="userSpaceOnUse" x1="428.5517" y1="695.1198" x2="386.4387" y2="687.4017" gradientTransform="matrix(1 0 0 -1 0 781)">
		<stop  offset="1.562500e-02" style="stop-color:#2757EA"/>
		<stop  offset="1" style="stop-color:#2757EA;stop-opacity:0"/>
	</linearGradient>
	<path style="fill-rule:evenodd;clip-rule:evenodd;fill:url(#SVGID_00000107576179328891300000000002428514446410831544_);" d="
		M412.7,91.7c9.9-7.8,22.2-16.1,35.1-23.5c1.7-1,2.3-3.1,1.3-4.8c-1-1.7-3.1-2.3-4.8-1.3c-13.1,7.6-25.7,16-35.9,24.1
		c-10.1,8-18.2,16-21.8,22.7c-0.9,1.7-0.3,3.9,1.4,4.8c1.7,0.9,3.9,0.3,4.8-1.4C395.6,106.9,402.7,99.6,412.7,91.7z"/>
</g>
<g>
	<path class="st16" d="M234.4,57.4c4.3,3.1,5.3,9.1,2.1,13.4c-3.1,4.3-9.1,5.3-13.4,2.1c-4.3-3.1-5.3-9.1-2.1-13.4
		C224.1,55.2,230.1,54.2,234.4,57.4z"/>
</g>
<g>
	<path class="st7" d="M912,302.3c4.3,3.1,5.2,9.1,2.1,13.3c-3.1,4.3-9.1,5.2-13.3,2.1c-4.3-3.1-5.2-9.1-2.1-13.3
		C901.8,300.1,907.7,299.2,912,302.3z"/>
</g>
<g>
	<path class="st16" d="M617.2,31.8c2.7,1.9,3.3,5.7,1.3,8.3c-1.9,2.7-5.7,3.3-8.3,1.3s-3.3-5.7-1.3-8.3
		C610.9,30.4,614.6,29.8,617.2,31.8z"/>
</g>
<path class="st16" d="M740.2,163.8c7.1,5.2,8.7,15.1,3.5,22.3c-5.2,7.1-15.1,8.7-22.3,3.5c-7.1-5.2-8.7-15.1-3.5-22.3
	C723.1,160.2,733.1,158.6,740.2,163.8z"/>
<path class="st10" d="M481.2,298.6c-0.5,0-1,0.2-1.5,0.4c-0.4,0.3-0.8,0.7-1,1.2c-0.2,0.5-0.3,1-0.2,1.5c0.1,0.5,0.4,1,0.7,1.4
	c0.4,0.4,0.8,0.6,1.4,0.7c0.5,0.1,1,0,1.5-0.2c0.5-0.2,0.9-0.5,1.2-1c0.3-0.4,0.4-0.9,0.4-1.5c0-0.7-0.3-1.4-0.8-1.9
	C482.6,298.9,481.9,298.6,481.2,298.6z M462.8,296c-0.7,0-1.4,0.3-1.9,0.8c-0.5,0.5-0.8,1.2-0.8,1.9v5.3c0,0.7,0.3,1.4,0.8,1.9
	c0.5,0.5,1.2,0.8,1.9,0.8c0.7,0,1.4-0.3,1.9-0.8c0.5-0.5,0.8-1.2,0.8-1.9v-5.3c0-0.7-0.3-1.4-0.8-1.9
	C464.1,296.3,463.5,296,462.8,296z M515.5,296c-0.7,0-1.4,0.3-1.9,0.8c-0.5,0.5-0.8,1.2-0.8,1.9v5.3c0,0.7,0.3,1.4,0.8,1.9
	c0.5,0.5,1.2,0.8,1.9,0.8c0.7,0,1.4-0.3,1.9-0.8c0.5-0.5,0.8-1.2,0.8-1.9v-5.3c0-0.7-0.3-1.4-0.8-1.9
	C516.9,296.3,516.2,296,515.5,296z M502.3,277.4h-10.5v-3.4c0.8-0.5,1.5-1.1,1.9-1.9c0.5-0.8,0.7-1.7,0.7-2.6c0-1.4-0.6-2.8-1.5-3.7
	c-1-1-2.3-1.6-3.7-1.6s-2.7,0.6-3.7,1.6c-1,1-1.5,2.3-1.5,3.7c0,0.9,0.3,1.8,0.7,2.6c0.5,0.8,1.1,1.5,1.9,1.9v3.4h-10.5
	c-2.1,0-4.1,0.8-5.6,2.3c-1.5,1.5-2.3,3.5-2.3,5.6v23.9c0,2.1,0.8,4.1,2.3,5.6c1.5,1.5,3.5,2.3,5.6,2.3h26.4c2.1,0,4.1-0.8,5.6-2.3
	c1.5-1.5,2.3-3.5,2.3-5.6v-23.9c0-2.1-0.8-4.1-2.3-5.6C506.4,278.3,504.4,277.4,502.3,277.4z M493.7,282.7l-1.3,5.3h-6.4l-1.3-5.3
	H493.7z M504.9,309.2c0,0.7-0.3,1.4-0.8,1.9c-0.5,0.5-1.2,0.8-1.9,0.8h-26.4c-0.7,0-1.4-0.3-1.9-0.8c-0.5-0.5-0.8-1.2-0.8-1.9v-23.9
	c0-0.7,0.3-1.4,0.8-1.9c0.5-0.5,1.2-0.8,1.9-0.8h3.2l2.1,8.6c0.1,0.6,0.5,1.1,1,1.5c0.5,0.4,1.1,0.6,1.7,0.5h10.5
	c0.6,0,1.2-0.2,1.7-0.5c0.5-0.4,0.8-0.9,1-1.5l2.1-8.6h3.2c0.7,0,1.4,0.3,1.9,0.8c0.5,0.5,0.8,1.2,0.8,1.9V309.2z M497,298.6
	c-0.5,0-1,0.2-1.5,0.4c-0.4,0.3-0.8,0.7-1,1.2c-0.2,0.5-0.3,1-0.2,1.5c0.1,0.5,0.4,1,0.7,1.4c0.4,0.4,0.8,0.6,1.4,0.7
	c0.5,0.1,1,0,1.5-0.2c0.5-0.2,0.9-0.5,1.2-1c0.3-0.4,0.4-0.9,0.4-1.5c0-0.7-0.3-1.4-0.8-1.9C498.4,298.9,497.7,298.6,497,298.6z"/>
<path class="st18" d="M490.4,278.8v-5.5l0.7-0.4c0.6-0.3,1.1-0.8,1.4-1.4c0.3-0.6,0.5-1.3,0.5-2c0-1.1-0.4-2.1-1.2-2.8
	c-0.7-0.7-1.7-1.2-2.8-1.2s-2.1,0.4-2.8,1.2c-0.7,0.7-1.2,1.8-1.2,2.8c0,0.7,0.2,1.4,0.5,2c0.3,0.6,0.8,1.1,1.4,1.4l0.7,0.4v5.5
	h-11.9c-1.7,0-3.4,0.7-4.7,1.9c-1.2,1.2-1.9,2.9-1.9,4.7v23.9c0,1.8,0.7,3.4,1.9,4.7c1.2,1.2,2.9,1.9,4.7,1.9h26.4
	c1.7,0,3.4-0.7,4.7-1.9c1.2-1.2,1.9-2.9,1.9-4.7v-23.9c0-1.8-0.7-3.4-1.9-4.7c-1.2-1.2-2.9-1.9-4.7-1.9H490.4z M483.8,269.5
	c0-1.4,0.6-2.8,1.5-3.7c1-1,2.3-1.6,3.7-1.6s2.7,0.6,3.7,1.6c1,1,1.5,2.3,1.5,3.7c0,0.9-0.3,1.8-0.7,2.6c-0.5,0.8-1.1,1.5-1.9,1.9
	v3.4h10.5c2.1,0,4.1,0.8,5.6,2.3c1.5,1.5,2.3,3.5,2.3,5.6v23.9c0,2.1-0.8,4.1-2.3,5.6c-1.5,1.5-3.5,2.3-5.6,2.3h-26.4
	c-2.1,0-4.1-0.8-5.6-2.3c-1.5-1.5-2.3-3.5-2.3-5.6v-23.9c0-2.1,0.8-4.1,2.3-5.6c1.5-1.5,3.5-2.3,5.6-2.3h10.5v-3.4
	c-0.8-0.5-1.5-1.1-1.9-1.9C484.1,271.3,483.9,270.4,483.8,269.5z M495.3,281.4l-2,7.9h-8.5l-2-7.9H495.3z M480.2,281.4l2.3,9.6
	c0,0,0,0,0,0c0.1,0.3,0.2,0.6,0.5,0.7c0.2,0.2,0.5,0.3,0.8,0.3l0,0h10.6l0,0c0.3,0,0.6-0.1,0.8-0.3c0.2-0.2,0.4-0.4,0.5-0.7
	c0,0,0,0,0,0l2.3-9.6h4.3c1,0,2.1,0.4,2.8,1.2c0.7,0.7,1.2,1.8,1.2,2.8v23.9c0,1.1-0.4,2.1-1.2,2.8c-0.7,0.7-1.7,1.2-2.8,1.2h-26.4
	c-1,0-2.1-0.4-2.8-1.2c-0.7-0.7-1.2-1.8-1.2-2.8v-23.9c0-1.1,0.4-2.1,1.2-2.8c0.7-0.7,1.7-1.2,2.8-1.2H480.2z M497,291.3
	c-0.1,0.6-0.5,1.1-1,1.5c-0.5,0.4-1.1,0.6-1.7,0.5h-10.5c-0.6,0-1.2-0.2-1.7-0.5c-0.5-0.4-0.8-0.9-1-1.5l-2.1-8.6h-3.2
	c-0.7,0-1.4,0.3-1.9,0.8c-0.5,0.5-0.8,1.2-0.8,1.9v23.9c0,0.7,0.3,1.4,0.8,1.9c0.5,0.5,1.2,0.8,1.9,0.8h26.4c0.7,0,1.4-0.3,1.9-0.8
	c0.5-0.5,0.8-1.2,0.8-1.9v-23.9c0-0.7-0.3-1.4-0.8-1.9c-0.5-0.5-1.2-0.8-1.9-0.8h-3.2L497,291.3z M481.2,300c-0.3,0-0.5,0.1-0.7,0.2
	c-0.2,0.1-0.4,0.4-0.5,0.6c-0.1,0.2-0.1,0.5-0.1,0.8c0.1,0.3,0.2,0.5,0.4,0.7c0.2,0.2,0.4,0.3,0.7,0.4c0.3,0.1,0.5,0,0.8-0.1
	c0.2-0.1,0.4-0.3,0.6-0.5c0.1-0.2,0.2-0.5,0.2-0.7c0-0.4-0.1-0.7-0.4-0.9C481.9,300.1,481.6,300,481.2,300z M462.8,297.3
	c-0.3,0-0.7,0.1-0.9,0.4c-0.2,0.2-0.4,0.6-0.4,0.9v5.3c0,0.4,0.1,0.7,0.4,0.9c0.2,0.2,0.6,0.4,0.9,0.4c0.4,0,0.7-0.1,0.9-0.4
	c0.2-0.2,0.4-0.6,0.4-0.9v-5.3c0-0.4-0.1-0.7-0.4-0.9C463.4,297.5,463.1,297.3,462.8,297.3z M515.5,297.3c-0.4,0-0.7,0.1-0.9,0.4
	c-0.2,0.2-0.4,0.6-0.4,0.9v5.3c0,0.4,0.1,0.7,0.4,0.9c0.2,0.2,0.6,0.4,0.9,0.4c0.3,0,0.7-0.1,0.9-0.4c0.2-0.2,0.4-0.6,0.4-0.9v-5.3
	c0-0.4-0.1-0.7-0.4-0.9C516.2,297.5,515.8,297.3,515.5,297.3z M493.7,282.7h-9.1l1.3,5.3h6.4L493.7,282.7z M497,300
	c-0.3,0-0.5,0.1-0.7,0.2c-0.2,0.1-0.4,0.4-0.5,0.6c-0.1,0.2-0.1,0.5-0.1,0.8c0.1,0.3,0.2,0.5,0.4,0.7c0.2,0.2,0.4,0.3,0.7,0.4
	c0.3,0.1,0.5,0,0.8-0.1c0.2-0.1,0.4-0.3,0.6-0.5c0.1-0.2,0.2-0.5,0.2-0.7c0-0.4-0.1-0.7-0.4-0.9C497.7,300.1,497.4,300,497,300z
	 M479.7,299.1c0.4-0.3,0.9-0.4,1.5-0.4c0.7,0,1.4,0.3,1.9,0.8c0.5,0.5,0.8,1.2,0.8,1.9c0,0.5-0.2,1-0.4,1.5c-0.3,0.4-0.7,0.8-1.2,1
	c-0.5,0.2-1,0.3-1.5,0.2c-0.5-0.1-1-0.4-1.4-0.7c-0.4-0.4-0.6-0.8-0.7-1.4c-0.1-0.5,0-1,0.2-1.5C479,299.8,479.3,299.4,479.7,299.1z
	 M460.9,296.8c0.5-0.5,1.2-0.8,1.9-0.8c0.7,0,1.4,0.3,1.9,0.8c0.5,0.5,0.8,1.2,0.8,1.9v5.3c0,0.7-0.3,1.4-0.8,1.9
	c-0.5,0.5-1.2,0.8-1.9,0.8c-0.7,0-1.4-0.3-1.9-0.8c-0.5-0.5-0.8-1.2-0.8-1.9v-5.3C460.1,297.9,460.4,297.3,460.9,296.8z
	 M513.6,296.8c0.5-0.5,1.2-0.8,1.9-0.8c0.7,0,1.4,0.3,1.9,0.8c0.5,0.5,0.8,1.2,0.8,1.9v5.3c0,0.7-0.3,1.4-0.8,1.9
	c-0.5,0.5-1.2,0.8-1.9,0.8c-0.7,0-1.4-0.3-1.9-0.8c-0.5-0.5-0.8-1.2-0.8-1.9v-5.3C512.8,297.9,513.1,297.3,513.6,296.8z
	 M495.6,299.1c0.4-0.3,0.9-0.4,1.5-0.4c0.7,0,1.4,0.3,1.9,0.8c0.5,0.5,0.8,1.2,0.8,1.9c0,0.5-0.2,1-0.4,1.5c-0.3,0.4-0.7,0.8-1.2,1
	c-0.5,0.2-1,0.3-1.5,0.2c-0.5-0.1-1-0.4-1.4-0.7c-0.4-0.4-0.6-0.8-0.7-1.4c-0.1-0.5,0-1,0.2-1.5
	C494.8,299.8,495.1,299.4,495.6,299.1z"/>
<path class="st10" d="M489.8,459.2c1.2-1,2.1-2.2,2.7-3.6c0.6-1.4,1-2.9,1-4.5c0-2.9-1.2-5.7-3.2-7.7c-2-2-4.8-3.2-7.7-3.2
	c-2.9,0-5.7,1.1-7.7,3.2c-2,2-3.2,4.8-3.2,7.7c0,1.5,0.3,3.1,1,4.5c0.6,1.4,1.6,2.6,2.7,3.6c-3.1,1.4-5.7,3.6-7.5,6.4
	c-1.8,2.8-2.8,6.1-2.8,9.4c0,0.6,0.2,1.1,0.6,1.5c0.4,0.4,1,0.6,1.5,0.6c0.6,0,1.1-0.2,1.5-0.6c0.4-0.4,0.6-1,0.6-1.5
	c0-3.5,1.4-6.8,3.8-9.2s5.8-3.8,9.3-3.8c3.5,0,6.8,1.4,9.3,3.8c2.5,2.4,3.8,5.8,3.8,9.2c0,0.6,0.2,1.1,0.6,1.5
	c0.4,0.4,1,0.6,1.5,0.6c0.6,0,1.1-0.2,1.5-0.6c0.4-0.4,0.6-1,0.6-1.5c0-3.3-1-6.6-2.8-9.4C495.5,462.8,492.9,460.6,489.8,459.2
	L489.8,459.2z M482.6,457.6c-1.3,0-2.6-0.4-3.6-1.1c-1.1-0.7-1.9-1.7-2.4-2.9c-0.5-1.2-0.6-2.5-0.4-3.8c0.3-1.3,0.9-2.4,1.8-3.3
	c0.9-0.9,2.1-1.5,3.4-1.8c1.3-0.3,2.6-0.1,3.8,0.4c1.2,0.5,2.2,1.3,2.9,2.4c0.7,1.1,1.1,2.3,1.1,3.6c0,1.7-0.7,3.4-1.9,4.6
	C486,456.9,484.3,457.6,482.6,457.6z M503.9,458.3c1.4-1.6,2.3-3.5,2.6-5.6c0.3-2.1,0-4.2-0.8-6.1c-0.9-1.9-2.3-3.5-4-4.7
	c-1.8-1.1-3.8-1.7-5.9-1.7c-0.6,0-1.1,0.2-1.5,0.6c-0.4,0.4-0.6,1-0.6,1.5c0,0.6,0.2,1.1,0.6,1.5c0.4,0.4,1,0.6,1.5,0.6
	c1.7,0,3.4,0.7,4.6,1.9c1.2,1.2,1.9,2.9,1.9,4.6c0,1.1-0.3,2.3-0.9,3.3c-0.6,1-1.4,1.8-2.4,2.4c-0.3,0.2-0.6,0.5-0.8,0.8
	c-0.2,0.3-0.3,0.7-0.3,1.1c0,0.4,0.1,0.7,0.2,1.1c0.2,0.3,0.4,0.6,0.7,0.8l0.9,0.6l0.3,0.2c2.6,1.2,4.9,3.2,6.4,5.7
	c1.5,2.5,2.4,5.3,2.3,8.2c0,0.6,0.2,1.1,0.6,1.5c0.4,0.4,1,0.6,1.5,0.6c0.6,0,1.1-0.2,1.5-0.6c0.4-0.4,0.6-1,0.6-1.5
	c0-3.3-0.8-6.6-2.4-9.6C509.1,462.5,506.7,460.1,503.9,458.3L503.9,458.3z"/>
<path class="st18" d="M473,451.1c0,1.3,0.3,2.7,0.8,3.9s1.4,2.3,2.4,3.2l1.6,1.4l-1.9,0.9c-2.8,1.3-5.2,3.3-6.9,5.9
	c-1.7,2.6-2.6,5.6-2.6,8.7c0,0.2,0.1,0.4,0.2,0.6c0.2,0.2,0.4,0.3,0.6,0.3s0.5-0.1,0.6-0.3c0.2-0.2,0.2-0.4,0.2-0.6
	c0-3.8,1.5-7.5,4.2-10.2c2.7-2.7,6.4-4.2,10.2-4.2c3.8,0,7.5,1.5,10.2,4.2c2.7,2.7,4.2,6.4,4.2,10.2c0,0.2,0.1,0.4,0.2,0.6
	c0.2,0.2,0.4,0.3,0.6,0.3c0.2,0,0.5-0.1,0.6-0.3c0.2-0.2,0.2-0.4,0.2-0.6c0-3.1-0.9-6.1-2.6-8.7c-1.7-2.6-4.1-4.7-6.9-5.9l0.5-1.2
	c0.4,0.2,0.9,0.4,1.3,0.6c2.5,1.4,4.6,3.4,6.2,5.8c1.8,2.8,2.8,6.1,2.8,9.4c0,0.6-0.2,1.1-0.6,1.5c-0.4,0.4-1,0.6-1.5,0.6
	c-0.6,0-1.1-0.2-1.5-0.6c-0.4-0.4-0.6-1-0.6-1.5c0-3.5-1.4-6.8-3.8-9.2c-2.5-2.4-5.8-3.8-9.3-3.8c-3.5,0-6.8,1.4-9.3,3.8
	s-3.8,5.8-3.8,9.2c0,0.6-0.2,1.1-0.6,1.5c-0.4,0.4-1,0.6-1.5,0.6c-0.6,0-1.1-0.2-1.5-0.6c-0.4-0.4-0.6-1-0.6-1.5
	c0-3.3,1-6.6,2.8-9.4c1.6-2.4,3.7-4.4,6.2-5.8c0.4-0.2,0.8-0.4,1.3-0.6c-0.4-0.3-0.7-0.6-1-1c-0.7-0.8-1.3-1.7-1.7-2.6
	c-0.6-1.4-1-2.9-1-4.5c0-2.9,1.2-5.7,3.2-7.7c2-2,4.8-3.2,7.7-3.2c2.9,0,5.7,1.1,7.7,3.2c2,2,3.2,4.8,3.2,7.7c0,1.5-0.3,3.1-1,4.5
	c-0.4,1-1,1.9-1.7,2.6c-0.3,0.4-0.7,0.7-1,1l-0.9-1c1-0.9,1.8-2,2.4-3.2c0.6-1.2,0.8-2.5,0.8-3.9c0-2.5-1-4.9-2.8-6.7
	c-1.8-1.8-4.2-2.8-6.8-2.8c-2.6,0-5,1-6.8,2.8C474,446.1,473,448.6,473,451.1z M505,459.1c-0.4-0.3-0.7-0.5-1.1-0.7
	c0.3-0.3,0.6-0.7,0.8-1.1c0.9-1.3,1.6-2.9,1.8-4.5c0.3-2.1,0-4.2-0.8-6.1c-0.9-1.9-2.3-3.5-4-4.7c-1.8-1.1-3.8-1.7-5.9-1.7
	c-0.6,0-1.1,0.2-1.5,0.6c-0.4,0.4-0.6,1-0.6,1.5c0,0.6,0.2,1.1,0.6,1.5c0.4,0.4,1,0.6,1.5,0.6c1.7,0,3.4,0.7,4.6,1.9
	c1.2,1.2,1.9,2.9,1.9,4.6c0,1.1-0.3,2.3-0.9,3.3c-0.6,1-1.4,1.8-2.4,2.4c-0.3,0.2-0.6,0.5-0.8,0.8c-0.2,0.3-0.3,0.7-0.3,1.1
	c0,0.4,0.1,0.7,0.2,1.1c0.2,0.3,0.4,0.6,0.7,0.8l0.9,0.6l0.3,0.2c2.6,1.2,4.9,3.2,6.4,5.7c1.5,2.5,2.4,5.3,2.3,8.2
	c0,0.6,0.2,1.1,0.6,1.5c0.4,0.4,1,0.6,1.5,0.6c0.6,0,1.1-0.2,1.5-0.6c0.4-0.4,0.6-1,0.6-1.5c0-3.3-0.8-6.6-2.4-9.6
	C509.3,462.9,507.3,460.7,505,459.1z M510.1,475c0,0.2,0.1,0.4,0.2,0.6c0.2,0.2,0.4,0.3,0.6,0.3s0.5-0.1,0.6-0.3
	c0.2-0.2,0.2-0.4,0.2-0.6v0v0c0-3.1-0.8-6.2-2.3-8.9c-1.5-2.7-3.7-5-6.3-6.7l0.7-1.1l-1-0.9c1.2-1.4,2-3.1,2.3-4.9
	c0.3-1.8,0-3.7-0.7-5.3c-0.8-1.7-2-3.1-3.5-4.1c-1.6-1-3.4-1.5-5.2-1.5c-0.2,0-0.5,0.1-0.6,0.3c-0.2,0.2-0.2,0.4-0.2,0.6
	c0,0.2,0.1,0.4,0.2,0.6c0.2,0.2,0.4,0.3,0.6,0.3c2.1,0,4.1,0.8,5.6,2.3c1.5,1.5,2.3,3.5,2.3,5.6v0c0,1.4-0.4,2.7-1.1,3.9
	c-0.7,1.2-1.7,2.2-2.9,2.9h0c-0.1,0.1-0.2,0.2-0.3,0.3c-0.1,0.1-0.1,0.3-0.1,0.4c0,0.1,0,0.3,0.1,0.4c0.1,0.1,0.2,0.2,0.3,0.3l0,0
	l0.8,0.5l0.2,0.1c2.8,1.4,5.2,3.5,6.9,6.2C509.2,468.8,510.1,471.9,510.1,475z M482.6,458.9c-1.6,0-3.1-0.5-4.4-1.3
	c-1.3-0.9-2.3-2.1-2.9-3.5s-0.8-3-0.5-4.6c0.3-1.5,1.1-2.9,2.2-4c1.1-1.1,2.5-1.8,4-2.1c1.5-0.3,3.1-0.1,4.5,0.4
	c1.4,0.6,2.7,1.6,3.5,2.9s1.3,2.8,1.3,4.4c0,2.1-0.8,4.1-2.3,5.6C486.7,458.1,484.7,458.9,482.6,458.9z M479,456.5
	c1.1,0.7,2.3,1.1,3.6,1.1c1.7,0,3.4-0.7,4.6-1.9c1.2-1.2,1.9-2.9,1.9-4.6c0-1.3-0.4-2.6-1.1-3.6c-0.7-1.1-1.7-1.9-2.9-2.4
	c-1.2-0.5-2.5-0.6-3.8-0.4c-1.3,0.3-2.4,0.9-3.4,1.8c-0.9,0.9-1.5,2.1-1.8,3.3c-0.3,1.3-0.1,2.6,0.4,3.8
	C477,454.8,477.9,455.8,479,456.5z"/>
<g>
	<path d="M457.6,349.2c15.7,0,28.5,12.8,28.5,28.5s-12.8,28.5-28.5,28.5s-28.5-12.8-28.5-28.5S441.9,349.2,457.6,349.2z"/>
</g>
<path class="st10" d="M450.3,375.2l4.3-4.3l0.9-0.9l2.1-2.2l7.3,7.4l4.2-4.3l-11.5-11.7l-11.5,11.7L450.3,375.2z"/>
<path class="st10" d="M457.8,373.5l-4.3,4.3l4.3,4.3l4.3-4.3L457.8,373.5z"/>
<path class="st10" d="M464.9,381.2l-7.3,6.9l-2.5-2.4l-0.5-0.4l-4.3-4l-4.2,4l11.5,11l11.5-11L464.9,381.2z"/>
<path class="st10" d="M443.2,373.5l-4.3,4.3l4.3,4.3l4.3-4.3L443.2,373.5z"/>
<path class="st10" d="M472.4,373.5l-4.3,4.3l4.3,4.3l4.3-4.3L472.4,373.5z"/>
<g>
	<path d="M522.6,349.2c15.7,0,28.5,12.8,28.5,28.5s-12.8,28.5-28.5,28.5s-28.5-12.8-28.5-28.5S506.9,349.2,522.6,349.2z"/>
</g>
<path class="st19" d="M523.1,360.2v13.1l11,4.9L523.1,360.2z"/>
<path class="st10" d="M523.1,360.2l-12,18l12-4.9V360.2z"/>
<path class="st19" d="M523.1,386.9v9.3l11-16L523.1,386.9z"/>
<path class="st10" d="M523.1,396.2v-9.3l-12-6.7L523.1,396.2z"/>
<path class="st20" d="M523.1,384.2l11-6.2l-11-4.8V384.2z"/>
<path class="st19" d="M511.1,378l12,6.2v-11L511.1,378z"/>
<g>
	<path class="st21" d="M83.1,354.2h108v88h-108V354.2z"/>
</g>
<g>
	<path class="st0" d="M189.4,356H84.9v84.5h104.5V356z M83.1,354.2v88h108v-88H83.1z"/>
</g>
<g>
	<path class="st21" d="M77.1,349.2h108v87h-108V349.2z"/>
</g>
<g>
	<path class="st0" d="M183.4,350.9H78.9v83.5h104.5V350.9z M77.1,349.2v87h108v-87H77.1z"/>
</g>
<g>
	<path class="st0" d="M185.1,380.2h-108v-2h108V380.2z"/>
</g>
<g>
	<path class="st0" d="M130.1,436.2v-57h2v57H130.1z"/>
</g>
<g>
	<path class="st0" d="M185.1,399.2h-108v-2h108V399.2z"/>
</g>
<g>
	<path class="st22" d="M122.1,389.2h-38v-2h38V389.2z"/>
</g>
<g>
	<path class="st23" d="M163.1,389.2h-23v-2h23V389.2z"/>
</g>
<g>
	<path class="st22" d="M101.1,407.2h-17v-1h17V407.2z"/>
</g>
<g>
	<path class="st23" d="M146.1,407.2h-6v-1h6V407.2z"/>
</g>
<g>
	<path class="st22" d="M112.1,426.2h-28v-2h28V426.2z"/>
</g>
<g>
	<path class="st23" d="M178.1,426.2h-38v-2h38V426.2z"/>
</g>
<g>
	<path class="st0" d="M185.1,417.2h-108v-2h108V417.2z"/>
</g>
<path class="st10" d="M117.1,364.2c0,2.8,1.9,5,5.1,5c2.7,0,4.6-1.5,4.9-3.9h-2.2c-0.2,1.3-1.3,2-2.6,2c-1.7,0-2.8-1-2.8-3.1
	c0-2,1.1-3,2.8-3c1.3,0,2.4,0.7,2.6,1.9h2.2c-0.3-2.4-2.1-3.9-4.9-3.9C119,359.2,117.1,361.4,117.1,364.2z"/>
<path class="st10" d="M135.1,369.1v-1.9h-4.8v-2h4.1v-1.9h-4.1v-1.9h4.8v-1.9h-7v9.7H135.1z"/>
<path class="st10" d="M138.2,369.1l2.6-3.7l2.7,3.7h2.6l-3.3-4.6v-0.6l3.3-4.6h-2.6l-2.7,3.7l-2.6-3.7h-2.6l3.3,4.6v0.6l-3.3,4.6
	H138.2z"/>
</svg>
